# xmcd
#
# Track frame offsets:
#	150
#	15860
#	30333
#	47302
#	67269
#	82069
#
# Disc length: 1273 seconds
#
# Revision: 0
# Processed by: cddbd v1.5.2PL0 Copyright (c) Steve Scherf et al.
# Submitted via: dBpowerAMP V4.0
#
DISCID=3c04f706
DTITLE=Shandell - Satin and Steel
DYEAR=2012
DGENRE=Country
TTITLE0=Think I will
TTITLE1=What a Shame
TTITLE2=Everytime I Roll The Dice
TTITLE3=Take Care of Me
TTITLE4=Rodeo Girls
TTITLE5=Baby You Broke It.
EXTD=
EXTT0=
EXTT1=
EXTT2=
EXTT3=
EXTT4=
EXTT5=
PLAYORDER=
